<svg xmlns="http://www.w3.org/2000/svg" xmlns:xlink="http://www.w3.org/1999/xlink" width="998" height="998" viewBox="0 0 998 998">
  <defs>
    <clipPath id="clip-path">
      <circle id="Ellipse_3254" data-name="Ellipse 3254" cx="499" cy="499" r="499" transform="translate(2404 577)" fill="none"/>
    </clipPath>
    <clipPath id="clip-path-2">
      <rect width="10" height="263" fill="none"/>
    </clipPath>
  </defs>
  <g id="Mask_Group_2" data-name="Mask Group 2" transform="translate(-2404 -577)" clip-path="url(#clip-path)">
    <g id="Group_192" data-name="Group 192" transform="translate(493 287)">
      <g id="Group_47" data-name="Group 47" transform="translate(318 -287)">
        <g id="Group_42" data-name="Group 42">
          <g id="Repeat_Grid_12" data-name="Repeat Grid 12" transform="translate(2111 876)" clip-path="url(#clip-path-2)">
            <g transform="translate(-16 -1165)">
              <g id="Ellipse_4" data-name="Ellipse 4" transform="translate(16 1165)" fill="none" stroke="#448ca7" stroke-width="1">
                <circle cx="5" cy="5" r="5" stroke="none"/>
                <circle cx="5" cy="5" r="4.5" fill="none"/>
              </g>
            </g>
            <g transform="translate(-16 -1144)">
              <g id="Ellipse_5" data-name="Ellipse 5" transform="translate(16 1165)" fill="none" stroke="#448ca7" stroke-width="1">
                <circle cx="5" cy="5" r="5" stroke="none"/>
                <circle cx="5" cy="5" r="4.5" fill="none"/>
              </g>
            </g>
            <g transform="translate(-16 -1123)">
              <g id="Ellipse_6" data-name="Ellipse 6" transform="translate(16 1165)" fill="none" stroke="#448ca7" stroke-width="1">
                <circle cx="5" cy="5" r="5" stroke="none"/>
                <circle cx="5" cy="5" r="4.5" fill="none"/>
              </g>
            </g>
            <g transform="translate(-16 -1102)">
              <g id="Ellipse_7" data-name="Ellipse 7" transform="translate(16 1165)" fill="none" stroke="#448ca7" stroke-width="1">
                <circle cx="5" cy="5" r="5" stroke="none"/>
                <circle cx="5" cy="5" r="4.5" fill="none"/>
              </g>
            </g>
            <g transform="translate(-16 -1081)">
              <g id="Ellipse_8" data-name="Ellipse 8" transform="translate(16 1165)" fill="none" stroke="#448ca7" stroke-width="1">
                <circle cx="5" cy="5" r="5" stroke="none"/>
                <circle cx="5" cy="5" r="4.5" fill="none"/>
              </g>
            </g>
            <g transform="translate(-16 -1060)">
              <g id="Ellipse_9" data-name="Ellipse 9" transform="translate(16 1165)" fill="none" stroke="#448ca7" stroke-width="1">
                <circle cx="5" cy="5" r="5" stroke="none"/>
                <circle cx="5" cy="5" r="4.5" fill="none"/>
              </g>
            </g>
            <g transform="translate(-16 -1039)">
              <g id="Ellipse_10" data-name="Ellipse 10" transform="translate(16 1165)" fill="none" stroke="#448ca7" stroke-width="1">
                <circle cx="5" cy="5" r="5" stroke="none"/>
                <circle cx="5" cy="5" r="4.5" fill="none"/>
              </g>
            </g>
            <g transform="translate(-16 -1018)">
              <g id="Ellipse_11" data-name="Ellipse 11" transform="translate(16 1165)" fill="none" stroke="#448ca7" stroke-width="1">
                <circle cx="5" cy="5" r="5" stroke="none"/>
                <circle cx="5" cy="5" r="4.5" fill="none"/>
              </g>
            </g>
            <g transform="translate(-16 -997)">
              <g id="Ellipse_12" data-name="Ellipse 12" transform="translate(16 1165)" fill="none" stroke="#448ca7" stroke-width="1">
                <circle cx="5" cy="5" r="5" stroke="none"/>
                <circle cx="5" cy="5" r="4.5" fill="none"/>
              </g>
            </g>
            <g transform="translate(-16 -976)">
              <g id="Ellipse_13" data-name="Ellipse 13" transform="translate(16 1165)" fill="none" stroke="#448ca7" stroke-width="1">
                <circle cx="5" cy="5" r="5" stroke="none"/>
                <circle cx="5" cy="5" r="4.5" fill="none"/>
              </g>
            </g>
            <g transform="translate(-16 -955)">
              <g id="Ellipse_14" data-name="Ellipse 14" transform="translate(16 1165)" fill="none" stroke="#448ca7" stroke-width="1">
                <circle cx="5" cy="5" r="5" stroke="none"/>
                <circle cx="5" cy="5" r="4.5" fill="none"/>
              </g>
            </g>
            <g transform="translate(-16 -934)">
              <g id="Ellipse_15" data-name="Ellipse 15" transform="translate(16 1165)" fill="none" stroke="#448ca7" stroke-width="1">
                <circle cx="5" cy="5" r="5" stroke="none"/>
                <circle cx="5" cy="5" r="4.5" fill="none"/>
              </g>
            </g>
            <g transform="translate(-16 -913)">
              <g id="Ellipse_16" data-name="Ellipse 16" transform="translate(16 1165)" fill="none" stroke="#448ca7" stroke-width="1">
                <circle cx="5" cy="5" r="5" stroke="none"/>
                <circle cx="5" cy="5" r="4.5" fill="none"/>
              </g>
            </g>
          </g>
          <g id="Repeat_Grid_13" data-name="Repeat Grid 13" transform="translate(2130 886)" clip-path="url(#clip-path-2)">
            <g transform="translate(-16 -1165)">
              <g id="Ellipse_17" data-name="Ellipse 17" transform="translate(16 1165)" fill="none" stroke="#448ca7" stroke-width="1">
                <circle cx="5" cy="5" r="5" stroke="none"/>
                <circle cx="5" cy="5" r="4.5" fill="none"/>
              </g>
            </g>
            <g transform="translate(-16 -1144)">
              <g id="Ellipse_18" data-name="Ellipse 18" transform="translate(16 1165)" fill="none" stroke="#448ca7" stroke-width="1">
                <circle cx="5" cy="5" r="5" stroke="none"/>
                <circle cx="5" cy="5" r="4.5" fill="none"/>
              </g>
            </g>
            <g transform="translate(-16 -1123)">
              <g id="Ellipse_19" data-name="Ellipse 19" transform="translate(16 1165)" fill="none" stroke="#448ca7" stroke-width="1">
                <circle cx="5" cy="5" r="5" stroke="none"/>
                <circle cx="5" cy="5" r="4.5" fill="none"/>
              </g>
            </g>
            <g transform="translate(-16 -1102)">
              <g id="Ellipse_20" data-name="Ellipse 20" transform="translate(16 1165)" fill="none" stroke="#448ca7" stroke-width="1">
                <circle cx="5" cy="5" r="5" stroke="none"/>
                <circle cx="5" cy="5" r="4.5" fill="none"/>
              </g>
            </g>
            <g transform="translate(-16 -1081)">
              <g id="Ellipse_21" data-name="Ellipse 21" transform="translate(16 1165)" fill="none" stroke="#448ca7" stroke-width="1">
                <circle cx="5" cy="5" r="5" stroke="none"/>
                <circle cx="5" cy="5" r="4.5" fill="none"/>
              </g>
            </g>
            <g transform="translate(-16 -1060)">
              <g id="Ellipse_22" data-name="Ellipse 22" transform="translate(16 1165)" fill="none" stroke="#448ca7" stroke-width="1">
                <circle cx="5" cy="5" r="5" stroke="none"/>
                <circle cx="5" cy="5" r="4.5" fill="none"/>
              </g>
            </g>
            <g transform="translate(-16 -1039)">
              <g id="Ellipse_23" data-name="Ellipse 23" transform="translate(16 1165)" fill="none" stroke="#448ca7" stroke-width="1">
                <circle cx="5" cy="5" r="5" stroke="none"/>
                <circle cx="5" cy="5" r="4.5" fill="none"/>
              </g>
            </g>
            <g transform="translate(-16 -1018)">
              <g id="Ellipse_24" data-name="Ellipse 24" transform="translate(16 1165)" fill="none" stroke="#448ca7" stroke-width="1">
                <circle cx="5" cy="5" r="5" stroke="none"/>
                <circle cx="5" cy="5" r="4.5" fill="none"/>
              </g>
            </g>
            <g transform="translate(-16 -997)">
              <g id="Ellipse_25" data-name="Ellipse 25" transform="translate(16 1165)" fill="none" stroke="#448ca7" stroke-width="1">
                <circle cx="5" cy="5" r="5" stroke="none"/>
                <circle cx="5" cy="5" r="4.5" fill="none"/>
              </g>
            </g>
            <g transform="translate(-16 -976)">
              <g id="Ellipse_26" data-name="Ellipse 26" transform="translate(16 1165)" fill="none" stroke="#448ca7" stroke-width="1">
                <circle cx="5" cy="5" r="5" stroke="none"/>
                <circle cx="5" cy="5" r="4.5" fill="none"/>
              </g>
            </g>
            <g transform="translate(-16 -955)">
              <g id="Ellipse_27" data-name="Ellipse 27" transform="translate(16 1165)" fill="none" stroke="#448ca7" stroke-width="1">
                <circle cx="5" cy="5" r="5" stroke="none"/>
                <circle cx="5" cy="5" r="4.5" fill="none"/>
              </g>
            </g>
            <g transform="translate(-16 -934)">
              <g id="Ellipse_28" data-name="Ellipse 28" transform="translate(16 1165)" fill="none" stroke="#448ca7" stroke-width="1">
                <circle cx="5" cy="5" r="5" stroke="none"/>
                <circle cx="5" cy="5" r="4.5" fill="none"/>
              </g>
            </g>
            <g transform="translate(-16 -913)">
              <g id="Ellipse_29" data-name="Ellipse 29" transform="translate(16 1165)" fill="none" stroke="#448ca7" stroke-width="1">
                <circle cx="5" cy="5" r="5" stroke="none"/>
                <circle cx="5" cy="5" r="4.5" fill="none"/>
              </g>
            </g>
          </g>
        </g>
      </g>
    </g>
  </g>
</svg>
