<svg xmlns="http://www.w3.org/2000/svg" xmlns:xlink="http://www.w3.org/1999/xlink" width="181" height="273" viewBox="0 0 181 273">
  <defs>
    <clipPath id="clip-path">
      <rect width="10" height="263" fill="none"/>
    </clipPath>
  </defs>
  <g id="Group_2" data-name="Group 2" transform="translate(-5 -1165)">
    <g id="Repeat_Grid_1" data-name="Repeat Grid 1" transform="translate(5 1165)" clip-path="url(#clip-path)">
      <g transform="translate(-16 -1165)">
        <g id="Component_1_1" data-name="Component 1 – 1" transform="translate(16 1165)">
          <circle id="Ellipse_1" data-name="Ellipse 1" cx="5" cy="5" r="5" fill="#d69c54"/>
        </g>
      </g>
      <g transform="translate(-16 -1144)">
        <g id="Component_1_1-2" data-name="Component 1 – 1" transform="translate(16 1165)">
          <circle id="Ellipse_1-2" data-name="Ellipse 1" cx="5" cy="5" r="5" fill="#d69c54"/>
        </g>
      </g>
      <g transform="translate(-16 -1123)">
        <g id="Component_1_1-3" data-name="Component 1 – 1" transform="translate(16 1165)">
          <circle id="Ellipse_1-3" data-name="Ellipse 1" cx="5" cy="5" r="5" fill="#d69c54"/>
        </g>
      </g>
      <g transform="translate(-16 -1102)">
        <g id="Component_1_1-4" data-name="Component 1 – 1" transform="translate(16 1165)">
          <circle id="Ellipse_1-4" data-name="Ellipse 1" cx="5" cy="5" r="5" fill="#d69c54"/>
        </g>
      </g>
      <g transform="translate(-16 -1081)">
        <g id="Component_1_1-5" data-name="Component 1 – 1" transform="translate(16 1165)">
          <circle id="Ellipse_1-5" data-name="Ellipse 1" cx="5" cy="5" r="5" fill="#d69c54"/>
        </g>
      </g>
      <g transform="translate(-16 -1060)">
        <g id="Component_1_1-6" data-name="Component 1 – 1" transform="translate(16 1165)">
          <circle id="Ellipse_1-6" data-name="Ellipse 1" cx="5" cy="5" r="5" fill="#d69c54"/>
        </g>
      </g>
      <g transform="translate(-16 -1039)">
        <g id="Component_1_1-7" data-name="Component 1 – 1" transform="translate(16 1165)">
          <circle id="Ellipse_1-7" data-name="Ellipse 1" cx="5" cy="5" r="5" fill="#d69c54"/>
        </g>
      </g>
      <g transform="translate(-16 -1018)">
        <g id="Component_1_1-8" data-name="Component 1 – 1" transform="translate(16 1165)">
          <circle id="Ellipse_1-8" data-name="Ellipse 1" cx="5" cy="5" r="5" fill="#d69c54"/>
        </g>
      </g>
      <g transform="translate(-16 -997)">
        <g id="Component_1_1-9" data-name="Component 1 – 1" transform="translate(16 1165)">
          <circle id="Ellipse_1-9" data-name="Ellipse 1" cx="5" cy="5" r="5" fill="#d69c54"/>
        </g>
      </g>
      <g transform="translate(-16 -976)">
        <g id="Component_1_1-10" data-name="Component 1 – 1" transform="translate(16 1165)">
          <circle id="Ellipse_1-10" data-name="Ellipse 1" cx="5" cy="5" r="5" fill="#d69c54"/>
        </g>
      </g>
      <g transform="translate(-16 -955)">
        <g id="Component_1_1-11" data-name="Component 1 – 1" transform="translate(16 1165)">
          <circle id="Ellipse_1-11" data-name="Ellipse 1" cx="5" cy="5" r="5" fill="#d69c54"/>
        </g>
      </g>
      <g transform="translate(-16 -934)">
        <g id="Component_1_1-12" data-name="Component 1 – 1" transform="translate(16 1165)">
          <circle id="Ellipse_1-12" data-name="Ellipse 1" cx="5" cy="5" r="5" fill="#d69c54"/>
        </g>
      </g>
      <g transform="translate(-16 -913)">
        <g id="Component_1_1-13" data-name="Component 1 – 1" transform="translate(16 1165)">
          <circle id="Ellipse_1-13" data-name="Ellipse 1" cx="5" cy="5" r="5" fill="#d69c54"/>
        </g>
      </g>
    </g>
    <g id="Repeat_Grid_4" data-name="Repeat Grid 4" transform="translate(43 1165)" clip-path="url(#clip-path)">
      <g transform="translate(-16 -1165)">
        <g id="Component_1_28" data-name="Component 1 – 28" transform="translate(16 1165)">
          <circle id="Ellipse_1-14" data-name="Ellipse 1" cx="5" cy="5" r="5" fill="#d69c54"/>
        </g>
      </g>
      <g transform="translate(-16 -1144)">
        <g id="Component_1_29" data-name="Component 1 – 29" transform="translate(16 1165)">
          <circle id="Ellipse_1-15" data-name="Ellipse 1" cx="5" cy="5" r="5" fill="#d69c54"/>
        </g>
      </g>
      <g transform="translate(-16 -1123)">
        <g id="Component_1_30" data-name="Component 1 – 30" transform="translate(16 1165)">
          <circle id="Ellipse_1-16" data-name="Ellipse 1" cx="5" cy="5" r="5" fill="#d69c54"/>
        </g>
      </g>
      <g transform="translate(-16 -1102)">
        <g id="Component_1_31" data-name="Component 1 – 31" transform="translate(16 1165)">
          <circle id="Ellipse_1-17" data-name="Ellipse 1" cx="5" cy="5" r="5" fill="#d69c54"/>
        </g>
      </g>
      <g transform="translate(-16 -1081)">
        <g id="Component_1_32" data-name="Component 1 – 32" transform="translate(16 1165)">
          <circle id="Ellipse_1-18" data-name="Ellipse 1" cx="5" cy="5" r="5" fill="#d69c54"/>
        </g>
      </g>
      <g transform="translate(-16 -1060)">
        <g id="Component_1_33" data-name="Component 1 – 33" transform="translate(16 1165)">
          <circle id="Ellipse_1-19" data-name="Ellipse 1" cx="5" cy="5" r="5" fill="#d69c54"/>
        </g>
      </g>
      <g transform="translate(-16 -1039)">
        <g id="Component_1_34" data-name="Component 1 – 34" transform="translate(16 1165)">
          <circle id="Ellipse_1-20" data-name="Ellipse 1" cx="5" cy="5" r="5" fill="#d69c54"/>
        </g>
      </g>
      <g transform="translate(-16 -1018)">
        <g id="Component_1_35" data-name="Component 1 – 35" transform="translate(16 1165)">
          <circle id="Ellipse_1-21" data-name="Ellipse 1" cx="5" cy="5" r="5" fill="#d69c54"/>
        </g>
      </g>
      <g transform="translate(-16 -997)">
        <g id="Component_1_36" data-name="Component 1 – 36" transform="translate(16 1165)">
          <circle id="Ellipse_1-22" data-name="Ellipse 1" cx="5" cy="5" r="5" fill="#d69c54"/>
        </g>
      </g>
      <g transform="translate(-16 -976)">
        <g id="Component_1_37" data-name="Component 1 – 37" transform="translate(16 1165)">
          <circle id="Ellipse_1-23" data-name="Ellipse 1" cx="5" cy="5" r="5" fill="#d69c54"/>
        </g>
      </g>
      <g transform="translate(-16 -955)">
        <g id="Component_1_38" data-name="Component 1 – 38" transform="translate(16 1165)">
          <circle id="Ellipse_1-24" data-name="Ellipse 1" cx="5" cy="5" r="5" fill="#d69c54"/>
        </g>
      </g>
      <g transform="translate(-16 -934)">
        <g id="Component_1_39" data-name="Component 1 – 39" transform="translate(16 1165)">
          <circle id="Ellipse_1-25" data-name="Ellipse 1" cx="5" cy="5" r="5" fill="#d69c54"/>
        </g>
      </g>
      <g transform="translate(-16 -913)">
        <g id="Component_1_40" data-name="Component 1 – 40" transform="translate(16 1165)">
          <circle id="Ellipse_1-26" data-name="Ellipse 1" cx="5" cy="5" r="5" fill="#d69c54"/>
        </g>
      </g>
    </g>
    <g id="Repeat_Grid_6" data-name="Repeat Grid 6" transform="translate(81 1165)" clip-path="url(#clip-path)">
      <g transform="translate(-16 -1165)">
        <g id="Component_1_54" data-name="Component 1 – 54" transform="translate(16 1165)">
          <circle id="Ellipse_1-27" data-name="Ellipse 1" cx="5" cy="5" r="5" fill="#d69c54"/>
        </g>
      </g>
      <g transform="translate(-16 -1144)">
        <g id="Component_1_55" data-name="Component 1 – 55" transform="translate(16 1165)">
          <circle id="Ellipse_1-28" data-name="Ellipse 1" cx="5" cy="5" r="5" fill="#d69c54"/>
        </g>
      </g>
      <g transform="translate(-16 -1123)">
        <g id="Component_1_56" data-name="Component 1 – 56" transform="translate(16 1165)">
          <circle id="Ellipse_1-29" data-name="Ellipse 1" cx="5" cy="5" r="5" fill="#d69c54"/>
        </g>
      </g>
      <g transform="translate(-16 -1102)">
        <g id="Component_1_57" data-name="Component 1 – 57" transform="translate(16 1165)">
          <circle id="Ellipse_1-30" data-name="Ellipse 1" cx="5" cy="5" r="5" fill="#d69c54"/>
        </g>
      </g>
      <g transform="translate(-16 -1081)">
        <g id="Component_1_58" data-name="Component 1 – 58" transform="translate(16 1165)">
          <circle id="Ellipse_1-31" data-name="Ellipse 1" cx="5" cy="5" r="5" fill="#d69c54"/>
        </g>
      </g>
      <g transform="translate(-16 -1060)">
        <g id="Component_1_59" data-name="Component 1 – 59" transform="translate(16 1165)">
          <circle id="Ellipse_1-32" data-name="Ellipse 1" cx="5" cy="5" r="5" fill="#d69c54"/>
        </g>
      </g>
      <g transform="translate(-16 -1039)">
        <g id="Component_1_60" data-name="Component 1 – 60" transform="translate(16 1165)">
          <circle id="Ellipse_1-33" data-name="Ellipse 1" cx="5" cy="5" r="5" fill="#d69c54"/>
        </g>
      </g>
      <g transform="translate(-16 -1018)">
        <g id="Component_1_61" data-name="Component 1 – 61" transform="translate(16 1165)">
          <circle id="Ellipse_1-34" data-name="Ellipse 1" cx="5" cy="5" r="5" fill="#d69c54"/>
        </g>
      </g>
      <g transform="translate(-16 -997)">
        <g id="Component_1_62" data-name="Component 1 – 62" transform="translate(16 1165)">
          <circle id="Ellipse_1-35" data-name="Ellipse 1" cx="5" cy="5" r="5" fill="#d69c54"/>
        </g>
      </g>
      <g transform="translate(-16 -976)">
        <g id="Component_1_63" data-name="Component 1 – 63" transform="translate(16 1165)">
          <circle id="Ellipse_1-36" data-name="Ellipse 1" cx="5" cy="5" r="5" fill="#d69c54"/>
        </g>
      </g>
      <g transform="translate(-16 -955)">
        <g id="Component_1_64" data-name="Component 1 – 64" transform="translate(16 1165)">
          <circle id="Ellipse_1-37" data-name="Ellipse 1" cx="5" cy="5" r="5" fill="#d69c54"/>
        </g>
      </g>
      <g transform="translate(-16 -934)">
        <g id="Component_1_65" data-name="Component 1 – 65" transform="translate(16 1165)">
          <circle id="Ellipse_1-38" data-name="Ellipse 1" cx="5" cy="5" r="5" fill="#d69c54"/>
        </g>
      </g>
      <g transform="translate(-16 -913)">
        <g id="Component_1_66" data-name="Component 1 – 66" transform="translate(16 1165)">
          <circle id="Ellipse_1-39" data-name="Ellipse 1" cx="5" cy="5" r="5" fill="#d69c54"/>
        </g>
      </g>
    </g>
    <g id="Repeat_Grid_2" data-name="Repeat Grid 2" transform="translate(24 1175)" clip-path="url(#clip-path)">
      <g transform="translate(-16 -1165)">
        <g id="Component_1_2" data-name="Component 1 – 2" transform="translate(16 1165)">
          <circle id="Ellipse_1-40" data-name="Ellipse 1" cx="5" cy="5" r="5" fill="#d69c54"/>
        </g>
      </g>
      <g transform="translate(-16 -1144)">
        <g id="Component_1_3" data-name="Component 1 – 3" transform="translate(16 1165)">
          <circle id="Ellipse_1-41" data-name="Ellipse 1" cx="5" cy="5" r="5" fill="#d69c54"/>
        </g>
      </g>
      <g transform="translate(-16 -1123)">
        <g id="Component_1_4" data-name="Component 1 – 4" transform="translate(16 1165)">
          <circle id="Ellipse_1-42" data-name="Ellipse 1" cx="5" cy="5" r="5" fill="#d69c54"/>
        </g>
      </g>
      <g transform="translate(-16 -1102)">
        <g id="Component_1_5" data-name="Component 1 – 5" transform="translate(16 1165)">
          <circle id="Ellipse_1-43" data-name="Ellipse 1" cx="5" cy="5" r="5" fill="#d69c54"/>
        </g>
      </g>
      <g transform="translate(-16 -1081)">
        <g id="Component_1_6" data-name="Component 1 – 6" transform="translate(16 1165)">
          <circle id="Ellipse_1-44" data-name="Ellipse 1" cx="5" cy="5" r="5" fill="#d69c54"/>
        </g>
      </g>
      <g transform="translate(-16 -1060)">
        <g id="Component_1_7" data-name="Component 1 – 7" transform="translate(16 1165)">
          <circle id="Ellipse_1-45" data-name="Ellipse 1" cx="5" cy="5" r="5" fill="#d69c54"/>
        </g>
      </g>
      <g transform="translate(-16 -1039)">
        <g id="Component_1_8" data-name="Component 1 – 8" transform="translate(16 1165)">
          <circle id="Ellipse_1-46" data-name="Ellipse 1" cx="5" cy="5" r="5" fill="#d69c54"/>
        </g>
      </g>
      <g transform="translate(-16 -1018)">
        <g id="Component_1_9" data-name="Component 1 – 9" transform="translate(16 1165)">
          <circle id="Ellipse_1-47" data-name="Ellipse 1" cx="5" cy="5" r="5" fill="#d69c54"/>
        </g>
      </g>
      <g transform="translate(-16 -997)">
        <g id="Component_1_10" data-name="Component 1 – 10" transform="translate(16 1165)">
          <circle id="Ellipse_1-48" data-name="Ellipse 1" cx="5" cy="5" r="5" fill="#d69c54"/>
        </g>
      </g>
      <g transform="translate(-16 -976)">
        <g id="Component_1_11" data-name="Component 1 – 11" transform="translate(16 1165)">
          <circle id="Ellipse_1-49" data-name="Ellipse 1" cx="5" cy="5" r="5" fill="#d69c54"/>
        </g>
      </g>
      <g transform="translate(-16 -955)">
        <g id="Component_1_12" data-name="Component 1 – 12" transform="translate(16 1165)">
          <circle id="Ellipse_1-50" data-name="Ellipse 1" cx="5" cy="5" r="5" fill="#d69c54"/>
        </g>
      </g>
      <g transform="translate(-16 -934)">
        <g id="Component_1_13" data-name="Component 1 – 13" transform="translate(16 1165)">
          <circle id="Ellipse_1-51" data-name="Ellipse 1" cx="5" cy="5" r="5" fill="#d69c54"/>
        </g>
      </g>
      <g transform="translate(-16 -913)">
        <g id="Component_1_14" data-name="Component 1 – 14" transform="translate(16 1165)">
          <circle id="Ellipse_1-52" data-name="Ellipse 1" cx="5" cy="5" r="5" fill="#d69c54"/>
        </g>
      </g>
    </g>
    <g id="Repeat_Grid_3" data-name="Repeat Grid 3" transform="translate(62 1175)" clip-path="url(#clip-path)">
      <g transform="translate(-16 -1165)">
        <g id="Component_1_15" data-name="Component 1 – 15" transform="translate(16 1165)">
          <circle id="Ellipse_1-53" data-name="Ellipse 1" cx="5" cy="5" r="5" fill="#d69c54"/>
        </g>
      </g>
      <g transform="translate(-16 -1144)">
        <g id="Component_1_16" data-name="Component 1 – 16" transform="translate(16 1165)">
          <circle id="Ellipse_1-54" data-name="Ellipse 1" cx="5" cy="5" r="5" fill="#d69c54"/>
        </g>
      </g>
      <g transform="translate(-16 -1123)">
        <g id="Component_1_17" data-name="Component 1 – 17" transform="translate(16 1165)">
          <circle id="Ellipse_1-55" data-name="Ellipse 1" cx="5" cy="5" r="5" fill="#d69c54"/>
        </g>
      </g>
      <g transform="translate(-16 -1102)">
        <g id="Component_1_18" data-name="Component 1 – 18" transform="translate(16 1165)">
          <circle id="Ellipse_1-56" data-name="Ellipse 1" cx="5" cy="5" r="5" fill="#d69c54"/>
        </g>
      </g>
      <g transform="translate(-16 -1081)">
        <g id="Component_1_19" data-name="Component 1 – 19" transform="translate(16 1165)">
          <circle id="Ellipse_1-57" data-name="Ellipse 1" cx="5" cy="5" r="5" fill="#d69c54"/>
        </g>
      </g>
      <g transform="translate(-16 -1060)">
        <g id="Component_1_20" data-name="Component 1 – 20" transform="translate(16 1165)">
          <circle id="Ellipse_1-58" data-name="Ellipse 1" cx="5" cy="5" r="5" fill="#d69c54"/>
        </g>
      </g>
      <g transform="translate(-16 -1039)">
        <g id="Component_1_21" data-name="Component 1 – 21" transform="translate(16 1165)">
          <circle id="Ellipse_1-59" data-name="Ellipse 1" cx="5" cy="5" r="5" fill="#d69c54"/>
        </g>
      </g>
      <g transform="translate(-16 -1018)">
        <g id="Component_1_22" data-name="Component 1 – 22" transform="translate(16 1165)">
          <circle id="Ellipse_1-60" data-name="Ellipse 1" cx="5" cy="5" r="5" fill="#d69c54"/>
        </g>
      </g>
      <g transform="translate(-16 -997)">
        <g id="Component_1_23" data-name="Component 1 – 23" transform="translate(16 1165)">
          <circle id="Ellipse_1-61" data-name="Ellipse 1" cx="5" cy="5" r="5" fill="#d69c54"/>
        </g>
      </g>
      <g transform="translate(-16 -976)">
        <g id="Component_1_24" data-name="Component 1 – 24" transform="translate(16 1165)">
          <circle id="Ellipse_1-62" data-name="Ellipse 1" cx="5" cy="5" r="5" fill="#d69c54"/>
        </g>
      </g>
      <g transform="translate(-16 -955)">
        <g id="Component_1_25" data-name="Component 1 – 25" transform="translate(16 1165)">
          <circle id="Ellipse_1-63" data-name="Ellipse 1" cx="5" cy="5" r="5" fill="#d69c54"/>
        </g>
      </g>
      <g transform="translate(-16 -934)">
        <g id="Component_1_26" data-name="Component 1 – 26" transform="translate(16 1165)">
          <circle id="Ellipse_1-64" data-name="Ellipse 1" cx="5" cy="5" r="5" fill="#d69c54"/>
        </g>
      </g>
      <g transform="translate(-16 -913)">
        <g id="Component_1_27" data-name="Component 1 – 27" transform="translate(16 1165)">
          <circle id="Ellipse_1-65" data-name="Ellipse 1" cx="5" cy="5" r="5" fill="#d69c54"/>
        </g>
      </g>
    </g>
    <g id="Repeat_Grid_5" data-name="Repeat Grid 5" transform="translate(100 1175)" clip-path="url(#clip-path)">
      <g transform="translate(-16 -1165)">
        <g id="Component_1_41" data-name="Component 1 – 41" transform="translate(16 1165)">
          <circle id="Ellipse_1-66" data-name="Ellipse 1" cx="5" cy="5" r="5" fill="#d69c54"/>
        </g>
      </g>
      <g transform="translate(-16 -1144)">
        <g id="Component_1_42" data-name="Component 1 – 42" transform="translate(16 1165)">
          <circle id="Ellipse_1-67" data-name="Ellipse 1" cx="5" cy="5" r="5" fill="#d69c54"/>
        </g>
      </g>
      <g transform="translate(-16 -1123)">
        <g id="Component_1_43" data-name="Component 1 – 43" transform="translate(16 1165)">
          <circle id="Ellipse_1-68" data-name="Ellipse 1" cx="5" cy="5" r="5" fill="#d69c54"/>
        </g>
      </g>
      <g transform="translate(-16 -1102)">
        <g id="Component_1_44" data-name="Component 1 – 44" transform="translate(16 1165)">
          <circle id="Ellipse_1-69" data-name="Ellipse 1" cx="5" cy="5" r="5" fill="#d69c54"/>
        </g>
      </g>
      <g transform="translate(-16 -1081)">
        <g id="Component_1_45" data-name="Component 1 – 45" transform="translate(16 1165)">
          <circle id="Ellipse_1-70" data-name="Ellipse 1" cx="5" cy="5" r="5" fill="#d69c54"/>
        </g>
      </g>
      <g transform="translate(-16 -1060)">
        <g id="Component_1_46" data-name="Component 1 – 46" transform="translate(16 1165)">
          <circle id="Ellipse_1-71" data-name="Ellipse 1" cx="5" cy="5" r="5" fill="#d69c54"/>
        </g>
      </g>
      <g transform="translate(-16 -1039)">
        <g id="Component_1_47" data-name="Component 1 – 47" transform="translate(16 1165)">
          <circle id="Ellipse_1-72" data-name="Ellipse 1" cx="5" cy="5" r="5" fill="#d69c54"/>
        </g>
      </g>
      <g transform="translate(-16 -1018)">
        <g id="Component_1_48" data-name="Component 1 – 48" transform="translate(16 1165)">
          <circle id="Ellipse_1-73" data-name="Ellipse 1" cx="5" cy="5" r="5" fill="#d69c54"/>
        </g>
      </g>
      <g transform="translate(-16 -997)">
        <g id="Component_1_49" data-name="Component 1 – 49" transform="translate(16 1165)">
          <circle id="Ellipse_1-74" data-name="Ellipse 1" cx="5" cy="5" r="5" fill="#d69c54"/>
        </g>
      </g>
      <g transform="translate(-16 -976)">
        <g id="Component_1_50" data-name="Component 1 – 50" transform="translate(16 1165)">
          <circle id="Ellipse_1-75" data-name="Ellipse 1" cx="5" cy="5" r="5" fill="#d69c54"/>
        </g>
      </g>
      <g transform="translate(-16 -955)">
        <g id="Component_1_51" data-name="Component 1 – 51" transform="translate(16 1165)">
          <circle id="Ellipse_1-76" data-name="Ellipse 1" cx="5" cy="5" r="5" fill="#d69c54"/>
        </g>
      </g>
      <g transform="translate(-16 -934)">
        <g id="Component_1_52" data-name="Component 1 – 52" transform="translate(16 1165)">
          <circle id="Ellipse_1-77" data-name="Ellipse 1" cx="5" cy="5" r="5" fill="#d69c54"/>
        </g>
      </g>
      <g transform="translate(-16 -913)">
        <g id="Component_1_53" data-name="Component 1 – 53" transform="translate(16 1165)">
          <circle id="Ellipse_1-78" data-name="Ellipse 1" cx="5" cy="5" r="5" fill="#d69c54"/>
        </g>
      </g>
    </g>
    <g id="Repeat_Grid_7" data-name="Repeat Grid 7" transform="translate(119 1165)" clip-path="url(#clip-path)">
      <g transform="translate(-16 -1165)">
        <g id="Component_1_67" data-name="Component 1 – 67" transform="translate(16 1165)">
          <circle id="Ellipse_1-79" data-name="Ellipse 1" cx="5" cy="5" r="5" fill="#d69c54"/>
        </g>
      </g>
      <g transform="translate(-16 -1144)">
        <g id="Component_1_68" data-name="Component 1 – 68" transform="translate(16 1165)">
          <circle id="Ellipse_1-80" data-name="Ellipse 1" cx="5" cy="5" r="5" fill="#d69c54"/>
        </g>
      </g>
      <g transform="translate(-16 -1123)">
        <g id="Component_1_69" data-name="Component 1 – 69" transform="translate(16 1165)">
          <circle id="Ellipse_1-81" data-name="Ellipse 1" cx="5" cy="5" r="5" fill="#d69c54"/>
        </g>
      </g>
      <g transform="translate(-16 -1102)">
        <g id="Component_1_70" data-name="Component 1 – 70" transform="translate(16 1165)">
          <circle id="Ellipse_1-82" data-name="Ellipse 1" cx="5" cy="5" r="5" fill="#d69c54"/>
        </g>
      </g>
      <g transform="translate(-16 -1081)">
        <g id="Component_1_71" data-name="Component 1 – 71" transform="translate(16 1165)">
          <circle id="Ellipse_1-83" data-name="Ellipse 1" cx="5" cy="5" r="5" fill="#d69c54"/>
        </g>
      </g>
      <g transform="translate(-16 -1060)">
        <g id="Component_1_72" data-name="Component 1 – 72" transform="translate(16 1165)">
          <circle id="Ellipse_1-84" data-name="Ellipse 1" cx="5" cy="5" r="5" fill="#d69c54"/>
        </g>
      </g>
      <g transform="translate(-16 -1039)">
        <g id="Component_1_73" data-name="Component 1 – 73" transform="translate(16 1165)">
          <circle id="Ellipse_1-85" data-name="Ellipse 1" cx="5" cy="5" r="5" fill="#d69c54"/>
        </g>
      </g>
      <g transform="translate(-16 -1018)">
        <g id="Component_1_74" data-name="Component 1 – 74" transform="translate(16 1165)">
          <circle id="Ellipse_1-86" data-name="Ellipse 1" cx="5" cy="5" r="5" fill="#d69c54"/>
        </g>
      </g>
      <g transform="translate(-16 -997)">
        <g id="Component_1_75" data-name="Component 1 – 75" transform="translate(16 1165)">
          <circle id="Ellipse_1-87" data-name="Ellipse 1" cx="5" cy="5" r="5" fill="#d69c54"/>
        </g>
      </g>
      <g transform="translate(-16 -976)">
        <g id="Component_1_76" data-name="Component 1 – 76" transform="translate(16 1165)">
          <circle id="Ellipse_1-88" data-name="Ellipse 1" cx="5" cy="5" r="5" fill="#d69c54"/>
        </g>
      </g>
      <g transform="translate(-16 -955)">
        <g id="Component_1_77" data-name="Component 1 – 77" transform="translate(16 1165)">
          <circle id="Ellipse_1-89" data-name="Ellipse 1" cx="5" cy="5" r="5" fill="#d69c54"/>
        </g>
      </g>
      <g transform="translate(-16 -934)">
        <g id="Component_1_78" data-name="Component 1 – 78" transform="translate(16 1165)">
          <circle id="Ellipse_1-90" data-name="Ellipse 1" cx="5" cy="5" r="5" fill="#d69c54"/>
        </g>
      </g>
      <g transform="translate(-16 -913)">
        <g id="Component_1_79" data-name="Component 1 – 79" transform="translate(16 1165)">
          <circle id="Ellipse_1-91" data-name="Ellipse 1" cx="5" cy="5" r="5" fill="#d69c54"/>
        </g>
      </g>
    </g>
    <g id="Repeat_Grid_8" data-name="Repeat Grid 8" transform="translate(138 1175)" clip-path="url(#clip-path)">
      <g transform="translate(-16 -1165)">
        <g id="Component_1_80" data-name="Component 1 – 80" transform="translate(16 1165)">
          <circle id="Ellipse_1-92" data-name="Ellipse 1" cx="5" cy="5" r="5" fill="#d69c54"/>
        </g>
      </g>
      <g transform="translate(-16 -1144)">
        <g id="Component_1_81" data-name="Component 1 – 81" transform="translate(16 1165)">
          <circle id="Ellipse_1-93" data-name="Ellipse 1" cx="5" cy="5" r="5" fill="#d69c54"/>
        </g>
      </g>
      <g transform="translate(-16 -1123)">
        <g id="Component_1_82" data-name="Component 1 – 82" transform="translate(16 1165)">
          <circle id="Ellipse_1-94" data-name="Ellipse 1" cx="5" cy="5" r="5" fill="#d69c54"/>
        </g>
      </g>
      <g transform="translate(-16 -1102)">
        <g id="Component_1_83" data-name="Component 1 – 83" transform="translate(16 1165)">
          <circle id="Ellipse_1-95" data-name="Ellipse 1" cx="5" cy="5" r="5" fill="#d69c54"/>
        </g>
      </g>
      <g transform="translate(-16 -1081)">
        <g id="Component_1_84" data-name="Component 1 – 84" transform="translate(16 1165)">
          <circle id="Ellipse_1-96" data-name="Ellipse 1" cx="5" cy="5" r="5" fill="#d69c54"/>
        </g>
      </g>
      <g transform="translate(-16 -1060)">
        <g id="Component_1_85" data-name="Component 1 – 85" transform="translate(16 1165)">
          <circle id="Ellipse_1-97" data-name="Ellipse 1" cx="5" cy="5" r="5" fill="#d69c54"/>
        </g>
      </g>
      <g transform="translate(-16 -1039)">
        <g id="Component_1_86" data-name="Component 1 – 86" transform="translate(16 1165)">
          <circle id="Ellipse_1-98" data-name="Ellipse 1" cx="5" cy="5" r="5" fill="#d69c54"/>
        </g>
      </g>
      <g transform="translate(-16 -1018)">
        <g id="Component_1_87" data-name="Component 1 – 87" transform="translate(16 1165)">
          <circle id="Ellipse_1-99" data-name="Ellipse 1" cx="5" cy="5" r="5" fill="#d69c54"/>
        </g>
      </g>
      <g transform="translate(-16 -997)">
        <g id="Component_1_88" data-name="Component 1 – 88" transform="translate(16 1165)">
          <circle id="Ellipse_1-100" data-name="Ellipse 1" cx="5" cy="5" r="5" fill="#d69c54"/>
        </g>
      </g>
      <g transform="translate(-16 -976)">
        <g id="Component_1_89" data-name="Component 1 – 89" transform="translate(16 1165)">
          <circle id="Ellipse_1-101" data-name="Ellipse 1" cx="5" cy="5" r="5" fill="#d69c54"/>
        </g>
      </g>
      <g transform="translate(-16 -955)">
        <g id="Component_1_90" data-name="Component 1 – 90" transform="translate(16 1165)">
          <circle id="Ellipse_1-102" data-name="Ellipse 1" cx="5" cy="5" r="5" fill="#d69c54"/>
        </g>
      </g>
      <g transform="translate(-16 -934)">
        <g id="Component_1_91" data-name="Component 1 – 91" transform="translate(16 1165)">
          <circle id="Ellipse_1-103" data-name="Ellipse 1" cx="5" cy="5" r="5" fill="#d69c54"/>
        </g>
      </g>
      <g transform="translate(-16 -913)">
        <g id="Component_1_92" data-name="Component 1 – 92" transform="translate(16 1165)">
          <circle id="Ellipse_1-104" data-name="Ellipse 1" cx="5" cy="5" r="5" fill="#d69c54"/>
        </g>
      </g>
    </g>
    <g id="Repeat_Grid_9" data-name="Repeat Grid 9" transform="translate(157 1165)" clip-path="url(#clip-path)">
      <g transform="translate(-16 -1165)">
        <g id="Component_1_93" data-name="Component 1 – 93" transform="translate(16 1165)">
          <circle id="Ellipse_1-105" data-name="Ellipse 1" cx="5" cy="5" r="5" fill="#d69c54"/>
        </g>
      </g>
      <g transform="translate(-16 -1144)">
        <g id="Component_1_94" data-name="Component 1 – 94" transform="translate(16 1165)">
          <circle id="Ellipse_1-106" data-name="Ellipse 1" cx="5" cy="5" r="5" fill="#d69c54"/>
        </g>
      </g>
      <g transform="translate(-16 -1123)">
        <g id="Component_1_95" data-name="Component 1 – 95" transform="translate(16 1165)">
          <circle id="Ellipse_1-107" data-name="Ellipse 1" cx="5" cy="5" r="5" fill="#d69c54"/>
        </g>
      </g>
      <g transform="translate(-16 -1102)">
        <g id="Component_1_96" data-name="Component 1 – 96" transform="translate(16 1165)">
          <circle id="Ellipse_1-108" data-name="Ellipse 1" cx="5" cy="5" r="5" fill="#d69c54"/>
        </g>
      </g>
      <g transform="translate(-16 -1081)">
        <g id="Component_1_97" data-name="Component 1 – 97" transform="translate(16 1165)">
          <circle id="Ellipse_1-109" data-name="Ellipse 1" cx="5" cy="5" r="5" fill="#d69c54"/>
        </g>
      </g>
      <g transform="translate(-16 -1060)">
        <g id="Component_1_98" data-name="Component 1 – 98" transform="translate(16 1165)">
          <circle id="Ellipse_1-110" data-name="Ellipse 1" cx="5" cy="5" r="5" fill="#d69c54"/>
        </g>
      </g>
      <g transform="translate(-16 -1039)">
        <g id="Component_1_99" data-name="Component 1 – 99" transform="translate(16 1165)">
          <circle id="Ellipse_1-111" data-name="Ellipse 1" cx="5" cy="5" r="5" fill="#d69c54"/>
        </g>
      </g>
      <g transform="translate(-16 -1018)">
        <g id="Component_1_100" data-name="Component 1 – 100" transform="translate(16 1165)">
          <circle id="Ellipse_1-112" data-name="Ellipse 1" cx="5" cy="5" r="5" fill="#d69c54"/>
        </g>
      </g>
      <g transform="translate(-16 -997)">
        <g id="Component_1_101" data-name="Component 1 – 101" transform="translate(16 1165)">
          <circle id="Ellipse_1-113" data-name="Ellipse 1" cx="5" cy="5" r="5" fill="#d69c54"/>
        </g>
      </g>
      <g transform="translate(-16 -976)">
        <g id="Component_1_102" data-name="Component 1 – 102" transform="translate(16 1165)">
          <circle id="Ellipse_1-114" data-name="Ellipse 1" cx="5" cy="5" r="5" fill="#d69c54"/>
        </g>
      </g>
      <g transform="translate(-16 -955)">
        <g id="Component_1_103" data-name="Component 1 – 103" transform="translate(16 1165)">
          <circle id="Ellipse_1-115" data-name="Ellipse 1" cx="5" cy="5" r="5" fill="#d69c54"/>
        </g>
      </g>
      <g transform="translate(-16 -934)">
        <g id="Component_1_104" data-name="Component 1 – 104" transform="translate(16 1165)">
          <circle id="Ellipse_1-116" data-name="Ellipse 1" cx="5" cy="5" r="5" fill="#d69c54"/>
        </g>
      </g>
      <g transform="translate(-16 -913)">
        <g id="Component_1_105" data-name="Component 1 – 105" transform="translate(16 1165)">
          <circle id="Ellipse_1-117" data-name="Ellipse 1" cx="5" cy="5" r="5" fill="#d69c54"/>
        </g>
      </g>
    </g>
    <g id="Repeat_Grid_10" data-name="Repeat Grid 10" transform="translate(176 1175)" clip-path="url(#clip-path)">
      <g transform="translate(-16 -1165)">
        <g id="Component_1_106" data-name="Component 1 – 106" transform="translate(16 1165)">
          <circle id="Ellipse_1-118" data-name="Ellipse 1" cx="5" cy="5" r="5" fill="#d69c54"/>
        </g>
      </g>
      <g transform="translate(-16 -1144)">
        <g id="Component_1_107" data-name="Component 1 – 107" transform="translate(16 1165)">
          <circle id="Ellipse_1-119" data-name="Ellipse 1" cx="5" cy="5" r="5" fill="#d69c54"/>
        </g>
      </g>
      <g transform="translate(-16 -1123)">
        <g id="Component_1_108" data-name="Component 1 – 108" transform="translate(16 1165)">
          <circle id="Ellipse_1-120" data-name="Ellipse 1" cx="5" cy="5" r="5" fill="#d69c54"/>
        </g>
      </g>
      <g transform="translate(-16 -1102)">
        <g id="Component_1_109" data-name="Component 1 – 109" transform="translate(16 1165)">
          <circle id="Ellipse_1-121" data-name="Ellipse 1" cx="5" cy="5" r="5" fill="#d69c54"/>
        </g>
      </g>
      <g transform="translate(-16 -1081)">
        <g id="Component_1_110" data-name="Component 1 – 110" transform="translate(16 1165)">
          <circle id="Ellipse_1-122" data-name="Ellipse 1" cx="5" cy="5" r="5" fill="#d69c54"/>
        </g>
      </g>
      <g transform="translate(-16 -1060)">
        <g id="Component_1_111" data-name="Component 1 – 111" transform="translate(16 1165)">
          <circle id="Ellipse_1-123" data-name="Ellipse 1" cx="5" cy="5" r="5" fill="#d69c54"/>
        </g>
      </g>
      <g transform="translate(-16 -1039)">
        <g id="Component_1_112" data-name="Component 1 – 112" transform="translate(16 1165)">
          <circle id="Ellipse_1-124" data-name="Ellipse 1" cx="5" cy="5" r="5" fill="#d69c54"/>
        </g>
      </g>
      <g transform="translate(-16 -1018)">
        <g id="Component_1_113" data-name="Component 1 – 113" transform="translate(16 1165)">
          <circle id="Ellipse_1-125" data-name="Ellipse 1" cx="5" cy="5" r="5" fill="#d69c54"/>
        </g>
      </g>
      <g transform="translate(-16 -997)">
        <g id="Component_1_114" data-name="Component 1 – 114" transform="translate(16 1165)">
          <circle id="Ellipse_1-126" data-name="Ellipse 1" cx="5" cy="5" r="5" fill="#d69c54"/>
        </g>
      </g>
      <g transform="translate(-16 -976)">
        <g id="Component_1_115" data-name="Component 1 – 115" transform="translate(16 1165)">
          <circle id="Ellipse_1-127" data-name="Ellipse 1" cx="5" cy="5" r="5" fill="#d69c54"/>
        </g>
      </g>
      <g transform="translate(-16 -955)">
        <g id="Component_1_116" data-name="Component 1 – 116" transform="translate(16 1165)">
          <circle id="Ellipse_1-128" data-name="Ellipse 1" cx="5" cy="5" r="5" fill="#d69c54"/>
        </g>
      </g>
      <g transform="translate(-16 -934)">
        <g id="Component_1_117" data-name="Component 1 – 117" transform="translate(16 1165)">
          <circle id="Ellipse_1-129" data-name="Ellipse 1" cx="5" cy="5" r="5" fill="#d69c54"/>
        </g>
      </g>
      <g transform="translate(-16 -913)">
        <g id="Component_1_118" data-name="Component 1 – 118" transform="translate(16 1165)">
          <circle id="Ellipse_1-130" data-name="Ellipse 1" cx="5" cy="5" r="5" fill="#d69c54"/>
        </g>
      </g>
    </g>
  </g>
</svg>
