<svg xmlns="http://www.w3.org/2000/svg" width="2127.121" height="747.121" viewBox="0 0 2127.121 747.121">
  <g id="Group_1943" data-name="Group 1943" transform="translate(-451.439 -2247.646)">
    <line id="Line_8" data-name="Line 8" y1="745" x2="745" transform="translate(452.5 2248.707)" fill="none" stroke="#448ca7" stroke-width="3"/>
    <line id="Line_8-2" data-name="Line 8" y1="745" x2="745" transform="translate(521.5 2248.707)" fill="none" stroke="#448ca7" stroke-width="3"/>
    <line id="Line_8-3" data-name="Line 8" y1="745" x2="745" transform="translate(590.5 2248.707)" fill="none" stroke="#448ca7" stroke-width="3"/>
    <line id="Line_8-4" data-name="Line 8" y1="745" x2="745" transform="translate(659.5 2248.707)" fill="none" stroke="#448ca7" stroke-width="3"/>
    <line id="Line_8-5" data-name="Line 8" y1="745" x2="745" transform="translate(728.5 2248.707)" fill="none" stroke="#448ca7" stroke-width="3"/>
    <line id="Line_8-6" data-name="Line 8" y1="745" x2="745" transform="translate(797.5 2248.707)" fill="none" stroke="#448ca7" stroke-width="3"/>
    <line id="Line_8-7" data-name="Line 8" y1="745" x2="745" transform="translate(866.5 2248.707)" fill="none" stroke="#448ca7" stroke-width="3"/>
    <line id="Line_8-8" data-name="Line 8" y1="745" x2="745" transform="translate(935.5 2248.707)" fill="none" stroke="#448ca7" stroke-width="3"/>
    <line id="Line_8-9" data-name="Line 8" y1="745" x2="745" transform="translate(1004.5 2248.707)" fill="none" stroke="#448ca7" stroke-width="3"/>
    <line id="Line_8-10" data-name="Line 8" y1="745" x2="745" transform="translate(1073.5 2248.707)" fill="none" stroke="#448ca7" stroke-width="3"/>
    <line id="Line_8-11" data-name="Line 8" y1="745" x2="745" transform="translate(1142.5 2248.707)" fill="none" stroke="#448ca7" stroke-width="3"/>
    <line id="Line_8-12" data-name="Line 8" y1="745" x2="745" transform="translate(1211.5 2248.707)" fill="none" stroke="#448ca7" stroke-width="3"/>
    <line id="Line_8-13" data-name="Line 8" y1="745" x2="745" transform="translate(1280.5 2248.707)" fill="none" stroke="#448ca7" stroke-width="3"/>
    <line id="Line_8-14" data-name="Line 8" y1="745" x2="745" transform="translate(1349.5 2248.707)" fill="none" stroke="#448ca7" stroke-width="3"/>
    <line id="Line_8-15" data-name="Line 8" y1="745" x2="745" transform="translate(1418.5 2248.707)" fill="none" stroke="#448ca7" stroke-width="3"/>
    <line id="Line_8-16" data-name="Line 8" y1="745" x2="745" transform="translate(1487.5 2248.707)" fill="none" stroke="#448ca7" stroke-width="3"/>
    <line id="Line_8-17" data-name="Line 8" y1="745" x2="745" transform="translate(1556.5 2248.707)" fill="none" stroke="#448ca7" stroke-width="3"/>
    <line id="Line_8-18" data-name="Line 8" y1="745" x2="745" transform="translate(1625.5 2248.707)" fill="none" stroke="#448ca7" stroke-width="3"/>
    <line id="Line_8-19" data-name="Line 8" y1="745" x2="745" transform="translate(1694.5 2248.707)" fill="none" stroke="#448ca7" stroke-width="3"/>
    <line id="Line_8-20" data-name="Line 8" y1="745" x2="745" transform="translate(1763.5 2248.707)" fill="none" stroke="#448ca7" stroke-width="3"/>
    <line id="Line_8-21" data-name="Line 8" y1="745" x2="745" transform="translate(1832.5 2248.707)" fill="none" stroke="#448ca7" stroke-width="3"/>
  </g>
</svg>
